<svg width="1510px" height="837.5" style="overflow: hidden;" aria-label="A chart." xmlns="http://www.w3.org/2000/svg"><defs id="_ABSTRACT_RENDERER_ID_0"></defs><g><path d="M12,282.5696508450886C81.55555555555556,282.5696508450886,151.11111111111111,282.89672453517665,220.66666666666666,282.89672453517665L220.66666666666666,627.8967245351766C151.11111111111111,627.8967245351766,81.55555555555556,627.5696508450885,12,627.5696508450885Z" stroke="#000000" stroke-width="0.5" fill-opacity="0.3" fill="#1CE6FF"></path><path d="M232.66666666666666,282.89672453517665C302.22222222222223,282.89672453517665,371.77777777777777,283.55714912849896,441.3333333333333,283.55714912849896L441.3333333333333,628.557149128499C371.77777777777777,628.557149128499,302.22222222222223,627.8967245351766,232.66666666666666,627.8967245351766Z" stroke="#000000" stroke-width="0.5" fill-opacity="0.3" fill="#1CE6FF"></path><path d="M453.3333333333333,283.55714912849896C522.8888888888889,283.55714912849896,592.4444444444445,284.56366032196246,662,284.56366032196246L662,629.5636603219625C592.4444444444445,629.5636603219625,522.8888888888889,628.557149128499,453.3333333333333,628.557149128499Z" stroke="#000000" stroke-width="0.5" fill-opacity="0.3" fill="#1CE6FF"></path><path d="M674,370.81366032196246C743.5555555555555,370.81366032196246,813.1111111111111,311.2500000000016,882.6666666666666,311.2500000000016L882.6666666666666,354.3750000000016C813.1111111111111,354.3750000000016,743.5555555555555,413.93866032196246,674,413.93866032196246Z" stroke="#000000" stroke-width="0.5" fill-opacity="0.3" fill="#1CE6FF"></path><path d="M894.6666666666666,311.2500000000016C964.2222222222222,311.2500000000016,1033.7777777777778,198.75000000000344,1103.3333333333333,198.75000000000344L1103.3333333333333,220.31250000000344C1033.7777777777778,220.31250000000344,964.2222222222222,332.8125000000016,894.6666666666666,332.8125000000016Z" stroke="#000000" stroke-width="0.5" fill-opacity="0.3" fill="#1CE6FF"></path><path d="M1115.3333333333333,198.75000000000344C1184.888888888889,198.75000000000344,1254.4444444444443,192.43408924199235,1324,192.43408924199235L1324,213.99658924199235C1254.4444444444443,213.99658924199235,1184.888888888889,220.31250000000344,1115.3333333333333,220.31250000000344Z" stroke="#000000" stroke-width="0.5" fill-opacity="0.3" fill="#1CE6FF"></path><path d="M1115.3333333333333,118.1250000000044C1184.888888888889,118.1250000000044,1254.4444444444443,170.87158924199235,1324,170.87158924199235L1324,192.43408924199235C1254.4444444444443,192.43408924199235,1184.888888888889,139.6875000000044,1115.3333333333333,139.6875000000044Z" stroke="#000000" stroke-width="0.5" fill-opacity="0.3" fill="#1CE6FF"></path><path d="M1115.3333333333333,59.06250000000432C1184.888888888889,59.06250000000432,1254.4444444444443,149.30908924199235,1324,149.30908924199235L1324,170.87158924199235C1254.4444444444443,170.87158924199235,1184.888888888889,80.62500000000432,1115.3333333333333,80.62500000000432Z" stroke="#000000" stroke-width="0.5" fill-opacity="0.3" fill="#1CE6FF"></path><path d="M1115.3333333333333,257.81250000000284C1184.888888888889,257.81250000000284,1254.4444444444443,213.99658924199235,1324,213.99658924199235L1324,235.55908924199235C1254.4444444444443,235.55908924199235,1184.888888888889,279.37500000000284,1115.3333333333333,279.37500000000284Z" stroke="#000000" stroke-width="0.5" fill-opacity="0.3" fill="#1CE6FF"></path><path d="M1115.3333333333333,4.145993444393259e-12C1184.888888888889,4.145993444393259e-12,1254.4444444444443,127.74658924199235,1324,127.74658924199235L1324,149.30908924199235C1254.4444444444443,149.30908924199235,1184.888888888889,21.562500000004146,1115.3333333333333,21.562500000004146Z" stroke="#000000" stroke-width="0.5" fill-opacity="0.3" fill="#1CE6FF"></path><path d="M1115.3333333333333,375.93750000000307C1184.888888888889,375.93750000000307,1254.4444444444443,257.12158924199235,1324,257.12158924199235L1324,278.68408924199235C1254.4444444444443,278.68408924199235,1184.888888888889,397.50000000000307,1115.3333333333333,397.50000000000307Z" stroke="#000000" stroke-width="0.5" fill-opacity="0.3" fill="#1CE6FF"></path><path d="M1115.3333333333333,316.8750000000032C1184.888888888889,316.8750000000032,1254.4444444444443,235.55908924199235,1324,235.55908924199235L1324,257.12158924199235C1254.4444444444443,257.12158924199235,1184.888888888889,338.4375000000032,1115.3333333333333,338.4375000000032Z" stroke="#000000" stroke-width="0.5" fill-opacity="0.3" fill="#1CE6FF"></path><path d="M674,284.56366032196246C743.5555555555555,284.56366032196246,813.1111111111111,150.00000000000205,882.6666666666666,150.00000000000205L882.6666666666666,214.68750000000205C813.1111111111111,214.68750000000205,743.5555555555555,349.25116032196246,674,349.25116032196246Z" stroke="#000000" stroke-width="0.5" fill-opacity="0.3" fill="#1CE6FF"></path><path d="M894.6666666666666,171.56250000000205C964.2222222222222,171.56250000000205,1033.7777777777778,118.1250000000044,1103.3333333333333,118.1250000000044L1103.3333333333333,161.2500000000044C1033.7777777777778,161.2500000000044,964.2222222222222,214.68750000000205,894.6666666666666,214.68750000000205Z" stroke="#000000" stroke-width="0.5" fill-opacity="0.3" fill="#1CE6FF"></path><path d="M674,349.25116032196246C743.5555555555555,349.25116032196246,813.1111111111111,252.18750000000205,882.6666666666666,252.18750000000205L882.6666666666666,273.75000000000205C813.1111111111111,273.75000000000205,743.5555555555555,370.81366032196246,674,370.81366032196246Z" stroke="#000000" stroke-width="0.5" fill-opacity="0.3" fill="#1CE6FF"></path><path d="M894.6666666666666,252.18750000000205C964.2222222222222,252.18750000000205,1033.7777777777778,59.06250000000432,1103.3333333333333,59.06250000000432L1103.3333333333333,80.62500000000432C1033.7777777777778,80.62500000000432,964.2222222222222,273.75000000000205,894.6666666666666,273.75000000000205Z" stroke="#000000" stroke-width="0.5" fill-opacity="0.3" fill="#1CE6FF"></path><path d="M674,413.93866032196246C743.5555555555555,413.93866032196246,813.1111111111111,391.8750000000017,882.6666666666666,391.8750000000017L882.6666666666666,456.5625000000017C813.1111111111111,456.5625000000017,743.5555555555555,478.62616032196246,674,478.62616032196246Z" stroke="#000000" stroke-width="0.5" fill-opacity="0.3" fill="#1CE6FF"></path><path d="M894.6666666666666,391.8750000000017C964.2222222222222,391.8750000000017,1033.7777777777778,257.81250000000284,1103.3333333333333,257.81250000000284L1103.3333333333333,279.37500000000284C1033.7777777777778,279.37500000000284,964.2222222222222,413.4375000000017,894.6666666666666,413.4375000000017Z" stroke="#000000" stroke-width="0.5" fill-opacity="0.3" fill="#1CE6FF"></path><path d="M894.6666666666666,150.00000000000205C964.2222222222222,150.00000000000205,1033.7777777777778,4.145993444393259e-12,1103.3333333333333,4.145993444393259e-12L1103.3333333333333,21.562500000004146C1033.7777777777778,21.562500000004146,964.2222222222222,171.56250000000205,894.6666666666666,171.56250000000205Z" stroke="#000000" stroke-width="0.5" fill-opacity="0.3" fill="#1CE6FF"></path><path d="M674,500.1886603219625C743.5555555555555,500.1886603219625,813.1111111111111,553.1250000000005,882.6666666666666,553.1250000000005L882.6666666666666,596.2500000000005C813.1111111111111,596.2500000000005,743.5555555555555,543.3136603219625,674,543.3136603219625Z" stroke="#000000" stroke-width="0.5" fill-opacity="0.3" fill="#1CE6FF"></path><path d="M894.6666666666666,553.1250000000005C964.2222222222222,553.1250000000005,1033.7777777777778,375.93750000000307,1103.3333333333333,375.93750000000307L1103.3333333333333,397.50000000000307C1033.7777777777778,397.50000000000307,964.2222222222222,574.6875000000005,894.6666666666666,574.6875000000005Z" stroke="#000000" stroke-width="0.5" fill-opacity="0.3" fill="#1CE6FF"></path><path d="M894.6666666666666,413.4375000000017C964.2222222222222,413.4375000000017,1033.7777777777778,316.8750000000032,1103.3333333333333,316.8750000000032L1103.3333333333333,338.4375000000032C1033.7777777777778,338.4375000000032,964.2222222222222,435.0000000000017,894.6666666666666,435.0000000000017Z" stroke="#000000" stroke-width="0.5" fill-opacity="0.3" fill="#1CE6FF"></path><path d="M1115.3333333333333,139.6875000000044C1184.888888888889,139.6875000000044,1254.4444444444443,493.9070463491012,1324,493.9070463491012L1324,515.4695463491012C1254.4444444444443,515.4695463491012,1184.888888888889,161.2500000000044,1115.3333333333333,161.2500000000044Z" stroke="#000000" stroke-width="0.5" fill-opacity="0.3" fill="#1CE6FF"></path><path d="M1115.3333333333333,553.1249999999993C1184.888888888889,553.1249999999993,1254.4444444444443,558.5945463491012,1324,558.5945463491012L1324,580.1570463491012C1254.4444444444443,580.1570463491012,1184.888888888889,574.6874999999993,1115.3333333333333,574.6874999999993Z" stroke="#000000" stroke-width="0.5" fill-opacity="0.3" fill="#1CE6FF"></path><path d="M1115.3333333333333,435.00000000000284C1184.888888888889,435.00000000000284,1254.4444444444443,515.4695463491012,1324,515.4695463491012L1324,537.0320463491012C1254.4444444444443,537.0320463491012,1184.888888888889,456.56250000000284,1115.3333333333333,456.56250000000284Z" stroke="#000000" stroke-width="0.5" fill-opacity="0.3" fill="#1CE6FF"></path><path d="M1115.3333333333333,671.2499999999998C1184.888888888889,671.2499999999998,1254.4444444444443,601.7195463491012,1324,601.7195463491012L1324,623.2820463491012C1254.4444444444443,623.2820463491012,1184.888888888889,692.8124999999998,1115.3333333333333,692.8124999999998Z" stroke="#000000" stroke-width="0.5" fill-opacity="0.3" fill="#1CE6FF"></path><path d="M1115.3333333333333,612.1874999999998C1184.888888888889,612.1874999999998,1254.4444444444443,580.1570463491012,1324,580.1570463491012L1324,601.7195463491012C1254.4444444444443,601.7195463491012,1184.888888888889,633.7499999999998,1115.3333333333333,633.7499999999998Z" stroke="#000000" stroke-width="0.5" fill-opacity="0.3" fill="#1CE6FF"></path><path d="M1115.3333333333333,730.3124999999998C1184.888888888889,730.3124999999998,1254.4444444444443,623.2820463491012,1324,623.2820463491012L1324,644.8445463491012C1254.4444444444443,644.8445463491012,1184.888888888889,751.8749999999998,1115.3333333333333,751.8749999999998Z" stroke="#000000" stroke-width="0.5" fill-opacity="0.3" fill="#1CE6FF"></path><path d="M1115.3333333333333,789.3749999999998C1184.888888888889,789.3749999999998,1254.4444444444443,644.8445463491012,1324,644.8445463491012L1324,687.9695463491012C1254.4444444444443,687.9695463491012,1184.888888888889,832.4999999999998,1115.3333333333333,832.4999999999998Z" stroke="#000000" stroke-width="0.5" fill-opacity="0.3" fill="#1CE6FF"></path><path d="M1115.3333333333333,494.06250000000284C1184.888888888889,494.06250000000284,1254.4444444444443,537.0320463491012,1324,537.0320463491012L1324,558.5945463491012C1254.4444444444443,558.5945463491012,1184.888888888889,515.6250000000028,1115.3333333333333,515.6250000000028Z" stroke="#000000" stroke-width="0.5" fill-opacity="0.3" fill="#1CE6FF"></path><path d="M674,478.62616032196246C743.5555555555555,478.62616032196246,813.1111111111111,494.0625000000016,882.6666666666666,494.0625000000016L882.6666666666666,515.6250000000016C813.1111111111111,515.6250000000016,743.5555555555555,500.18866032196246,674,500.18866032196246Z" stroke="#000000" stroke-width="0.5" fill-opacity="0.3" fill="#1CE6FF"></path><path d="M894.6666666666666,494.0625000000016C964.2222222222222,494.0625000000016,1033.7777777777778,553.1249999999993,1103.3333333333333,553.1249999999993L1103.3333333333333,574.6874999999993C1033.7777777777778,574.6874999999993,964.2222222222222,515.6250000000016,894.6666666666666,515.6250000000016Z" stroke="#000000" stroke-width="0.5" fill-opacity="0.3" fill="#1CE6FF"></path><path d="M894.6666666666666,332.8125000000016C964.2222222222222,332.8125000000016,1033.7777777777778,435.00000000000284,1103.3333333333333,435.00000000000284L1103.3333333333333,456.56250000000284C1033.7777777777778,456.56250000000284,964.2222222222222,354.3750000000016,894.6666666666666,354.3750000000016Z" stroke="#000000" stroke-width="0.5" fill-opacity="0.3" fill="#1CE6FF"></path><path d="M674,543.3136603219625C743.5555555555555,543.3136603219625,813.1111111111111,633.7500000000002,882.6666666666666,633.7500000000002L882.6666666666666,655.3125000000002C813.1111111111111,655.3125000000002,743.5555555555555,564.8761603219625,674,564.8761603219625Z" stroke="#000000" stroke-width="0.5" fill-opacity="0.3" fill="#1CE6FF"></path><path d="M894.6666666666666,633.7500000000002C964.2222222222222,633.7500000000002,1033.7777777777778,671.2499999999998,1103.3333333333333,671.2499999999998L1103.3333333333333,692.8124999999998C1033.7777777777778,692.8124999999998,964.2222222222222,655.3125000000002,894.6666666666666,655.3125000000002Z" stroke="#000000" stroke-width="0.5" fill-opacity="0.3" fill="#1CE6FF"></path><path d="M894.6666666666666,574.6875000000005C964.2222222222222,574.6875000000005,1033.7777777777778,612.1874999999998,1103.3333333333333,612.1874999999998L1103.3333333333333,633.7499999999998C1033.7777777777778,633.7499999999998,964.2222222222222,596.2500000000005,894.6666666666666,596.2500000000005Z" stroke="#000000" stroke-width="0.5" fill-opacity="0.3" fill="#1CE6FF"></path><path d="M674,564.8761603219625C743.5555555555555,564.8761603219625,813.1111111111111,692.8125000000002,882.6666666666666,692.8125000000002L882.6666666666666,714.3750000000002C813.1111111111111,714.3750000000002,743.5555555555555,586.4386603219625,674,586.4386603219625Z" stroke="#000000" stroke-width="0.5" fill-opacity="0.3" fill="#1CE6FF"></path><path d="M894.6666666666666,692.8125000000002C964.2222222222222,692.8125000000002,1033.7777777777778,730.3124999999998,1103.3333333333333,730.3124999999998L1103.3333333333333,751.8749999999998C1033.7777777777778,751.8749999999998,964.2222222222222,714.3750000000002,894.6666666666666,714.3750000000002Z" stroke="#000000" stroke-width="0.5" fill-opacity="0.3" fill="#1CE6FF"></path><path d="M674,586.4386603219625C743.5555555555555,586.4386603219625,813.1111111111111,751.8750000000002,882.6666666666666,751.8750000000002L882.6666666666666,773.4375000000002C813.1111111111111,773.4375000000002,743.5555555555555,608.0011603219625,674,608.0011603219625Z" stroke="#000000" stroke-width="0.5" fill-opacity="0.3" fill="#1CE6FF"></path><path d="M894.6666666666666,751.8750000000002C964.2222222222222,751.8750000000002,1033.7777777777778,789.3749999999998,1103.3333333333333,789.3749999999998L1103.3333333333333,810.9374999999998C1033.7777777777778,810.9374999999998,964.2222222222222,773.4375000000002,894.6666666666666,773.4375000000002Z" stroke="#000000" stroke-width="0.5" fill-opacity="0.3" fill="#1CE6FF"></path><path d="M894.6666666666666,810.9375000000002C964.2222222222222,810.9375000000002,1033.7777777777778,810.9374999999998,1103.3333333333333,810.9374999999998L1103.3333333333333,832.4999999999998C1033.7777777777778,832.4999999999998,964.2222222222222,832.5000000000002,894.6666666666666,832.5000000000002Z" stroke="#000000" stroke-width="0.5" fill-opacity="0.3" fill="#1CE6FF"></path><path d="M674,608.0011603219625C743.5555555555555,608.0011603219625,813.1111111111111,810.9375000000002,882.6666666666666,810.9375000000002L882.6666666666666,832.5000000000002C813.1111111111111,832.5000000000002,743.5555555555555,629.5636603219625,674,629.5636603219625Z" stroke="#000000" stroke-width="0.5" fill-opacity="0.3" fill="#1CE6FF"></path><path d="M894.6666666666666,435.0000000000017C964.2222222222222,435.0000000000017,1033.7777777777778,494.06250000000284,1103.3333333333333,494.06250000000284L1103.3333333333333,515.6250000000028C1033.7777777777778,515.6250000000028,964.2222222222222,456.5625000000017,894.6666666666666,456.5625000000017Z" stroke="#000000" stroke-width="0.5" fill-opacity="0.3" fill="#1CE6FF"></path></g><g><text text-anchor="start" x="17" y="458.5696508450891" font-family="UthmanTN" font-size="10" font-weight="bold" font-style="italic" stroke="none" stroke-width="0" fill="#000000">4677 عمر بن الخطاب بن</text><text text-anchor="start" x="237.66666666666666" y="458.896724535178" font-family="UthmanTN" font-size="10" font-weight="bold" font-style="italic" stroke="none" stroke-width="0" fill="#000000">4494 علقمة بن وقاص بن</text><text text-anchor="start" x="458.3333333333333" y="459.55714912849805" font-family="UthmanTN" font-size="10" font-weight="bold" font-style="italic" stroke="none" stroke-width="0" fill="#000000">5443 محمد بن إبراهيم بن</text><text text-anchor="start" x="679" y="460.5636603219624" font-family="UthmanTN" font-size="10" font-weight="bold" font-style="italic" stroke="none" stroke-width="0" fill="#000000">6932 يحيى بن سعيد بن</text><text text-anchor="start" x="897" y="336.31250000000165" font-family="UthmanTN" font-size="10" font-weight="bold" font-style="italic" stroke="none" stroke-width="0" fill="#000000">2478 سفيان بن عيينة بن</text><text text-anchor="start" x="1118" y="213.03125000000313" font-family="UthmanTN" font-size="10" font-weight="bold" font-style="italic" stroke="none" stroke-width="0" fill="#000000">3654 عبد الله بن الزبير</text><text text-anchor="start" x="1339" y="206.71533924199258" font-family="UthmanTN" font-size="10" font-weight="bold" font-style="italic" stroke="none" stroke-width="0" fill="#000000">5495 محمد بن إسماعيل بن</text><text text-anchor="start" x="1118" y="143.18750000000392" font-family="UthmanTN" font-size="10" font-weight="bold" font-style="italic" stroke="none" stroke-width="0" fill="#000000">3919 عبد الله بن مسلمة</text><text text-anchor="start" x="1118" y="73.34375000000436" font-family="UthmanTN" font-size="10" font-weight="bold" font-style="italic" stroke="none" stroke-width="0" fill="#000000">5889 محمد بن كثير</text><text text-anchor="start" x="1118" y="272.093750000003" font-family="UthmanTN" font-size="10" font-weight="bold" font-style="italic" stroke="none" stroke-width="0" fill="#000000">6085 مسدد بن مسرهد بن</text><text text-anchor="start" x="1118" y="14.281250000004228" font-family="UthmanTN" font-size="10" font-weight="bold" font-style="italic" stroke="none" stroke-width="0" fill="#000000">6983 يحيى بن قزعة</text><text text-anchor="start" x="1118" y="390.21875000000296" font-family="UthmanTN" font-size="10" font-weight="bold" font-style="italic" stroke="none" stroke-width="0" fill="#000000">5187 قتيبة بن سعيد بن</text><text text-anchor="start" x="1118" y="331.1562500000031" font-family="UthmanTN" font-size="10" font-weight="bold" font-style="italic" stroke="none" stroke-width="0" fill="#000000">5877 محمد بن الفضل</text><text text-anchor="start" x="897" y="185.84375000000205" font-family="UthmanTN" font-size="10" font-weight="bold" font-style="italic" stroke="none" stroke-width="0" fill="#000000">5361 مالك بن أنس بن</text><text text-anchor="start" x="897" y="266.4687500000018" font-family="UthmanTN" font-size="10" font-weight="bold" font-style="italic" stroke="none" stroke-width="0" fill="#000000">2472 سفيان بن سعيد بن</text><text text-anchor="start" x="897" y="427.71875000000165" font-family="UthmanTN" font-size="10" font-weight="bold" font-style="italic" stroke="none" stroke-width="0" fill="#000000">1619 حماد بن زيد بن</text><text text-anchor="start" x="897" y="578.1875000000003" font-family="UthmanTN" font-size="10" font-weight="bold" font-style="italic" stroke="none" stroke-width="0" fill="#000000">4085 عبد الوهاب بن عبد</text><text text-anchor="start" x="1339" y="594.4382963491012" font-family="UthmanTN" font-size="10" font-weight="bold" font-style="italic" stroke="none" stroke-width="0" fill="#000000">6116 مسلم بن الحجاج بن</text><text text-anchor="start" x="1118" y="567.4062499999995" font-family="UthmanTN" font-size="10" font-weight="bold" font-style="italic" stroke="none" stroke-width="0" fill="#000000">5609 محمد بن رمح بن</text><text text-anchor="start" x="1118" y="449.28125000000284" font-family="UthmanTN" font-size="10" font-weight="bold" font-style="italic" stroke="none" stroke-width="0" fill="#000000">5974 محمد بن يحيى بن</text><text text-anchor="start" x="1118" y="685.5312499999998" font-family="UthmanTN" font-size="10" font-weight="bold" font-style="italic" stroke="none" stroke-width="0" fill="#000000">549 إسحاق بن إبراهيم بن</text><text text-anchor="start" x="1118" y="626.4687499999998" font-family="UthmanTN" font-size="10" font-weight="bold" font-style="italic" stroke="none" stroke-width="0" fill="#000000">5898 محمد بن المثنى بن</text><text text-anchor="start" x="1118" y="744.5937499999998" font-family="UthmanTN" font-size="10" font-weight="bold" font-style="italic" stroke="none" stroke-width="0" fill="#000000">5820 محمد بن العلاء بن</text><text text-anchor="start" x="1118" y="814.4374999999999" font-family="UthmanTN" font-size="10" font-weight="bold" font-style="italic" stroke="none" stroke-width="0" fill="#000000">5774 محمد بن عبد الله</text><text text-anchor="start" x="1118" y="508.3437500000011" font-family="UthmanTN" font-size="10" font-weight="bold" font-style="italic" stroke="none" stroke-width="0" fill="#000000">2591 سليمان بن داود</text><text text-anchor="start" x="897" y="508.343750000001" font-family="UthmanTN" font-size="10" font-weight="bold" font-style="italic" stroke="none" stroke-width="0" fill="#000000">5348 الليث بن سعد بن</text><text text-anchor="start" x="897" y="648.0312500000002" font-family="UthmanTN" font-size="10" font-weight="bold" font-style="italic" stroke="none" stroke-width="0" fill="#000000">2588 سليمان بن حيان</text><text text-anchor="start" x="897" y="707.0937500000002" font-family="UthmanTN" font-size="10" font-weight="bold" font-style="italic" stroke="none" stroke-width="0" fill="#000000">3875 عبد الله بن المبارك</text><text text-anchor="start" x="897" y="766.1562500000002" font-family="UthmanTN" font-size="10" font-weight="bold" font-style="italic" stroke="none" stroke-width="0" fill="#000000">1556 حفص بن غياث بن</text><text text-anchor="start" x="897" y="825.2187500000001" font-family="UthmanTN" font-size="10" font-weight="bold" font-style="italic" stroke="none" stroke-width="0" fill="#000000">7130 يزيد بن هارون بن</text><rect x="0" y="282.5696508450886" width="12" height="345.00000000000097" stroke="none" stroke-width="0" fill-opacity="0.8" fill="lightslategray"></rect><rect x="220.66666666666666" y="282.89672453517665" width="12" height="345.00000000000273" stroke="none" stroke-width="0" fill-opacity="0.8" fill="#005800"></rect><rect x="441.3333333333333" y="283.55714912849896" width="12" height="344.9999999999982" stroke="none" stroke-width="0" fill-opacity="0.8" fill="#008a00"></rect><rect x="662" y="284.56366032196246" width="12" height="344.99999999999994" stroke="none" stroke-width="0" fill-opacity="0.8" fill="#005800"></rect><rect x="882.6666666666666" y="311.2500000000016" width="12" height="43.125000000000114" stroke="none" stroke-width="0" fill-opacity="0.8" fill="#005800"></rect><rect x="1103.3333333333333" y="198.75000000000344" width="12" height="21.562499999999375" stroke="none" stroke-width="0" fill-opacity="0.8" fill="#005800"></rect><rect x="1324" y="127.74658924199234" width="12" height="150.9375000000005" stroke="none" stroke-width="0" fill-opacity="0.8" fill="#005800"></rect><rect x="1103.3333333333333" y="118.1250000000044" width="12" height="43.124999999999034" stroke="none" stroke-width="0" fill-opacity="0.8" fill="#008a00"></rect><rect x="1103.3333333333333" y="59.06250000000431" width="12" height="21.562500000000092" stroke="none" stroke-width="0" fill-opacity="0.8" fill="#008a00"></rect><rect x="1103.3333333333333" y="257.81250000000284" width="12" height="21.56250000000034" stroke="none" stroke-width="0" fill-opacity="0.8" fill="#005800"></rect><rect x="1103.3333333333333" y="4.145993444393259e-12" width="12" height="21.562500000000163" stroke="none" stroke-width="0" fill-opacity="0.8" fill="#dde086"></rect><rect x="1103.3333333333333" y="375.93750000000307" width="12" height="21.562499999999773" stroke="none" stroke-width="0" fill-opacity="0.8" fill="#005800"></rect><rect x="1103.3333333333333" y="316.8750000000032" width="12" height="21.562499999999886" stroke="none" stroke-width="0" fill-opacity="0.8" fill="#005800"></rect><rect x="882.6666666666666" y="150.00000000000205" width="12" height="64.6875" stroke="none" stroke-width="0" fill-opacity="0.8" fill="#005800"></rect><rect x="882.6666666666666" y="252.18750000000205" width="12" height="21.562499999999545" stroke="none" stroke-width="0" fill-opacity="0.8" fill="#005800"></rect><rect x="882.6666666666666" y="391.8750000000017" width="12" height="64.68749999999989" stroke="none" stroke-width="0" fill-opacity="0.8" fill="#005800"></rect><rect x="882.6666666666666" y="553.1250000000005" width="12" height="43.12499999999977" stroke="none" stroke-width="0" fill-opacity="0.8" fill="#008a00"></rect><rect x="1324" y="493.9070463491012" width="12" height="194.06249999999983" stroke="none" stroke-width="0" fill-opacity="0.8" fill="#005800"></rect><rect x="1103.3333333333333" y="553.1249999999993" width="12" height="21.562500000000455" stroke="none" stroke-width="0" fill-opacity="0.8" fill="#005800"></rect><rect x="1103.3333333333333" y="435.00000000000284" width="12" height="21.5625" stroke="none" stroke-width="0" fill-opacity="0.8" fill="#7cb840"></rect><rect x="1103.3333333333333" y="671.2499999999998" width="12" height="21.5625" stroke="none" stroke-width="0" fill-opacity="0.8" fill="#005800"></rect><rect x="1103.3333333333333" y="612.1874999999998" width="12" height="21.5625" stroke="none" stroke-width="0" fill-opacity="0.8" fill="#005800"></rect><rect x="1103.3333333333333" y="730.3124999999998" width="12" height="21.5625" stroke="none" stroke-width="0" fill-opacity="0.8" fill="#005800"></rect><rect x="1103.3333333333333" y="789.3749999999998" width="12" height="43.12500000000023" stroke="none" stroke-width="0" fill-opacity="0.8" fill="#005800"></rect><rect x="1103.3333333333333" y="494.06250000000284" width="12" height="21.562499999996476" stroke="none" stroke-width="0" fill-opacity="0.8" fill="#008a00"></rect><rect x="882.6666666666666" y="494.0625000000016" width="12" height="21.562499999998863" stroke="none" stroke-width="0" fill-opacity="0.8" fill="#005800"></rect><rect x="882.6666666666666" y="633.7500000000002" width="12" height="21.5625" stroke="none" stroke-width="0" fill-opacity="0.8" fill="#7cb840"></rect><rect x="882.6666666666666" y="692.8125000000002" width="12" height="21.5625" stroke="none" stroke-width="0" fill-opacity="0.8" fill="#005800"></rect><rect x="882.6666666666666" y="751.8750000000002" width="12" height="21.5625" stroke="none" stroke-width="0" fill-opacity="0.8" fill="#008a00"></rect><rect x="882.6666666666666" y="810.9375000000002" width="12" height="21.562499999999773" stroke="none" stroke-width="0" fill-opacity="0.8" fill="#008a00"></rect></g><g></g><g></g><g></g><g></g><g></g></svg>